<svg xmlns="http://www.w3.org/2000/svg" xmlns:xlink="http://www.w3.org/1999/xlink" version="1.1" width="256" height="256" viewBox="0 0 256 256" xml:space="preserve">

<defs>
</defs>
<g style="stroke: none; stroke-width: 0; stroke-dasharray: none; stroke-linecap: butt; stroke-linejoin: miter; stroke-miterlimit: 10; fill: none; fill-rule: nonzero; opacity: 1;" transform="translate(1.4065934065934016 1.4065934065934016) scale(2.81 2.81)" >
	<path d="M 88.933 31.013 C 81.27 18.712 71.287 8.73 58.987 1.066 c -3.094 -1.928 -7.105 -1.501 -9.682 1.077 L 27.373 24.075 c -3.042 3.042 -3.042 7.974 0 11.016 l 7.506 7.506 L 1.55 75.927 c -0.428 0.428 -0.687 0.996 -0.73 1.599 l -0.683 9.653 c -0.108 1.524 1.159 2.791 2.683 2.683 l 9.653 -0.683 c 0.603 -0.043 1.171 -0.302 1.599 -0.729 l 2.84 -2.839 c 0.381 -0.381 0.63 -0.875 0.709 -1.409 l 1.049 -7.092 c 0.162 -1.095 1.022 -1.955 2.117 -2.117 l 6.052 -0.897 c 1.095 -0.162 1.955 -1.022 2.117 -2.117 l 0.897 -6.052 c 0.162 -1.095 1.022 -1.955 2.117 -2.117 l 7.913 -1.17 l 7.519 -7.519 l 7.506 7.506 c 3.042 3.042 7.974 3.042 11.016 0 l 21.932 -21.932 C 90.434 38.118 90.861 34.107 88.933 31.013 z M 68.03 31.366 c -2.595 2.595 -6.801 2.595 -9.396 0 c -2.595 -2.595 -2.595 -6.801 0 -9.396 c 2.595 -2.595 6.801 -2.595 9.396 0 C 70.624 24.565 70.624 28.771 68.03 31.366 z" style="stroke: none; stroke-width: 1; stroke-dasharray: none; stroke-linecap: butt; stroke-linejoin: miter; stroke-miterlimit: 10; fill: rgb(31,188,27); fill-rule: nonzero; opacity: 1;" transform=" matrix(1 0 0 1 0 0) " stroke-linecap="round" />
</g>
</svg>